<svg focusable="false" preserveAspectRatio="xMidYMid meet" xmlns="http://www.w3.org/2000/svg" aria-hidden="true" style="will-change: transform;" fill="#ffffff">
    <view id="shrink-screen" viewBox="0 0 32 32"/>
    <view id="shrink-screen-filled" viewBox="0 32 32 32"/>
    <view id="fit-to-screen" viewBox="0 64 32 32"/>
    <view id="maximize" viewBox="0 96 32 32"/>
    <view id="minimize" viewBox="0 128 32 32"/>
    <view id="play-filled-alt" viewBox="32 0 32 32"/>
    <view id="pause-filled" viewBox="32 32 32 32"/>
    <g id="shrink-screen" transform="translate(0 0)">
        <path d="M28 28H17a2.0023 2.0023 0 01-2-2V20a2.0023 2.0023 0 012-2H28a2.0027 2.0027 0 012 2v6A2.0027 2.0027 0 0128 28zM17 20v6H28.002L28 20zM12 10L12 13.586 7.707 9.293 6.293 10.707 10.586 15 7 15 7 17 14 17 14 10 12 10z"></path>
        <path d="M13,22H4a2.0023,2.0023,0,0,1-2-2V7A2.002,2.002,0,0,1,4,5H26a2.0023,2.0023,0,0,1,2,2v9H26V7H4V20h9Z"></path>
        <title>Shrink screen</title>
    </g>
    <g id="shrink-screen-filled" transform="translate(0 32)">
        <rect width="15" height="10" x="15" y="18" rx="2"></rect>
        <path d="M12 10L12 13.586 7.707 9.293 6.293 10.707 10.586 15 7 15 7 17 14 17 14 10 12 10z"></path>
        <path d="M13,22H4a2.0023,2.0023,0,0,1-2-2V7A2.002,2.002,0,0,1,4,5H26a2.0023,2.0023,0,0,1,2,2v9H26V7H4V20h9Z"></path>
        <title>Shrink screen filled</title>
    </g>
    <g id="fit-to-screen" transform="translate(0 64)">
        <path d="M22 16L24 16 24 8 16 8 16 10 22 10 22 16zM8 24L16 24 16 22 10 22 10 16 8 16 8 24z"></path>
        <path d="M26,28H6a2.0023,2.0023,0,0,1-2-2V6A2.0023,2.0023,0,0,1,6,4H26a2.0023,2.0023,0,0,1,2,2V26A2.0023,2.0023,0,0,1,26,28ZM6,6V26H26.0012L26,6Z"></path>
        <title>Fit to screen</title>
    </g>
    <g id="maximize" transform="translate(0 96)">
        <path d="M21 2L21 4 26.59 4 17 13.58 18.41 15 28 5.41 28 11 30 11 30 2 21 2zM15 18.42L13.59 17 4 26.59 4 21 2 21 2 30 11 30 11 28 5.41 28 15 18.42z"></path>
        <title>Maximize</title>
    </g>
    <g id="minimize" transform="translate(0 128)">
        <path d="M6 17L6 19 11.59 19 2 28.58 3.41 30 13 20.41 13 26 15 26 15 17 6 17zM30 3.42L28.59 2 19 11.59 19 6 17 6 17 15 26 15 26 13 20.41 13 30 3.42z"></path>
        <title>Minimize</title>
    </g>
    <g id="play-filled-alt" transform="translate(32 0)">
        <path d="M7,28a1,1,0,0,1-1-1V5a1,1,0,0,1,1.501-.8652l19,11a1,1,0,0,1,0,1.73l-19,11A.9975.9975,0,0,1,7,28Z"></path>
        <title>Play filled alt</title>
    </g>
    <g id="pause-filled" transform="translate(32 32)">
        <path d="M12 6H10A2 2 0 008 8V24a2 2 0 002 2h2a2 2 0 002-2V8a2 2 0 00-2-2zM22 6H20a2 2 0 00-2 2V24a2 2 0 002 2h2a2 2 0 002-2V8a2 2 0 00-2-2z"></path>
        <title>Pause filled</title>
    </g>
</svg>
